<?xml version="1.0" standalone="no"?><!DOCTYPE svg PUBLIC "-//W3C//DTD SVG 1.1//EN" "http://www.w3.org/Graphics/SVG/1.1/DTD/svg11.dtd"><svg class="icon" width="200px" height="133.42px" viewBox="0 0 1535 1024" version="1.1" xmlns="http://www.w3.org/2000/svg"><path fill="#cdcdcd" d="M1296.418 996.078H264.259c-90.017 0-162.951-72.95-162.967-162.937V181.233v-0.002c0-90.017 72.967-162.967 162.967-162.967h1032.157c90.017 0.001 162.951 72.992 162.951 162.967v651.91c-0.001 89.997-72.967 162.934-162.937 162.951zM535.802 805.952h353.165c30.019 0 54.346-24.343 54.346-54.346s-24.343-54.346-54.346-54.346H535.802c-30.019 0-54.346 24.343-54.346 54.346s24.343 54.346 54.346 54.346z m0-271.618h570.443c30.019 0 54.346-24.343 54.346-54.346s-24.343-54.346-54.346-54.346H535.802c-29.127 1.153-52.265 25.029-52.265 54.346s23.182 53.161 52.169 54.346zM345.696 181.196c-30.009 0-54.34 24.337-54.34 54.34 0 30.009 24.337 54.34 54.34 54.34 30.009 0 54.34-24.337 54.34-54.34 0-30.009-24.337-54.34-54.34-54.34z m0 244.456c-29.127 1.153-52.265 25.029-52.265 54.346s23.182 53.161 52.169 54.346c30.137 0 54.415-24.343 54.415-54.346 0-30.019-24.343-54.346-54.346-54.346z m0 271.654c-30.009 0-54.34 24.337-54.34 54.34 0 30.009 24.337 54.34 54.34 54.34 30.009 0 54.34-24.337 54.34-54.34 0-30.009-24.337-54.34-54.34-54.34z m923.513-516.11H535.775c-30.009 0-54.34 24.337-54.34 54.34s24.337 54.34 54.34 54.34h733.434c30.009 0 54.34-24.337 54.34-54.34s-24.337-54.34-54.34-54.34z" /></svg>