<?xml version="1.0" standalone="no"?><!DOCTYPE svg PUBLIC "-//W3C//DTD SVG 1.1//EN" "http://www.w3.org/Graphics/SVG/1.1/DTD/svg11.dtd"><svg class="icon" width="200px" height="200.00px" viewBox="0 0 1024 1024" version="1.1" xmlns="http://www.w3.org/2000/svg"><path fill="#cdcdcd" d="M870.4 1024H174.08a122.88 122.88 0 0 1-122.88-122.88V194.56a122.88 122.88 0 0 1 122.88-122.88h585.3696a20.48 20.48 0 0 1 0 40.96H174.08a81.92 81.92 0 0 0-81.92 81.92v706.56a81.92 81.92 0 0 0 81.92 81.92h696.32a81.92 81.92 0 0 0 81.92-81.92V291.84a20.48 20.48 0 0 1 40.96 0v609.28a122.88 122.88 0 0 1-122.88 122.88zM471.04 358.4H215.04a20.48 20.48 0 0 1 0-40.96h256a20.48 20.48 0 0 1 0 40.96zM721.92 578.56H215.04a20.48 20.48 0 0 1 0-40.96h506.88a20.48 20.48 0 0 1 0 40.96zM660.48 389.12a20.48 20.48 0 0 1-14.3872-35.072l337.92-332.8a20.48 20.48 0 1 1 28.7232 29.184l-337.92 332.8A20.48 20.48 0 0 1 660.48 389.12z" /></svg>