<?xml version="1.0" standalone="no"?><!DOCTYPE svg PUBLIC "-//W3C//DTD SVG 1.1//EN" "http://www.w3.org/Graphics/SVG/1.1/DTD/svg11.dtd"><svg class="icon" width="200px" height="199.80px" viewBox="0 0 1025 1024" version="1.1" xmlns="http://www.w3.org/2000/svg"><path fill="#cdcdcd" d="M622.007 399.94c22.425 22.46 58.71 22.46 81.17 0l206.471-204.493-1.33 164.933c-0.547 23.21 17.92 43.451 41.062 42.94h29.49c23.178-0.58 42.36-14.439 42.941-37.615l1.194-301.125c0-0.443-1.57-0.717-1.57-1.126l2.322-21.06c0.204-11.674-2.493-22.085-10.07-29.594-7.373-7.51-17.852-12.05-29.423-11.708l-20.958 0.444c-0.444 0-0.75 0.17-1.194 0.239L662.182 0c-23.177 0.512-42.36 19.73-42.94 42.974l-0.034 29.56c3.55 27.443 25.054 43.451 48.197 42.94l159.13 0.613-204.46 202.616c-22.494 22.357-22.494 58.71-0.068 81.237zM403.485 623.82c-22.425-22.493-58.743-22.493-81.203 0L115.776 827.05l1.331-161.177c0.512-23.245-17.886-43.486-41.029-42.906H44.846c-23.244 0.58-42.393 14.37-42.905 37.615L0.712 959.215c0 0.375 1.57 0.683 1.57 1.16L0.029 981.367c-0.239 11.674 2.458 22.153 10.001 29.56 7.407 7.543 17.852 12.083 29.355 11.81l21.026-0.546c0.41 0 0.683-0.17 1.16-0.17l299.453 1.808c23.176-0.614 42.359-19.797 42.94-43.042v-29.593c-3.516-27.375-25.02-41.643-48.163-41.131l-158.617-0.512 206.301-204.356c22.392-22.46 22.392-58.88 0-81.374z"  /></svg>